<mxfile host="app.diagrams.net" modified="2023-10-21T04:34:12.793Z" agent="Mozilla/5.0 (Windows NT 10.0; Win64; x64) AppleWebKit/537.36 (KHTML, like Gecko) Chrome/118.0.0.0 Safari/537.36 Edg/118.0.2088.57" etag="hfphgPFZuDd-oECTsh3U" version="22.0.6" type="google">
  <diagram name="Page-1" id="13e1069c-82ec-6db2-03f1-153e76fe0fe0">
    <mxGraphModel grid="0" page="0" gridSize="10" guides="1" tooltips="1" connect="1" arrows="1" fold="1" pageScale="1" pageWidth="1100" pageHeight="850" background="none" math="0" shadow="0">
      <root>
        <mxCell id="0" />
        <mxCell id="1" parent="0" />
        <mxCell id="7baba1c4bc27f4b0-3" value=":MarketPlace - MISA" style="shape=umlLifeline;perimeter=lifelinePerimeter;whiteSpace=wrap;html=1;container=1;collapsible=0;recursiveResize=0;outlineConnect=0;rounded=1;shadow=0;comic=0;labelBackgroundColor=none;strokeWidth=1;fontFamily=Verdana;fontSize=12;align=center;" vertex="1" parent="1">
          <mxGeometry x="489" y="80" width="135" height="440" as="geometry" />
        </mxCell>
        <mxCell id="7baba1c4bc27f4b0-13" value="" style="html=1;points=[];perimeter=orthogonalPerimeter;rounded=0;shadow=0;comic=0;labelBackgroundColor=none;strokeWidth=1;fontFamily=Verdana;fontSize=12;align=center;" vertex="1" parent="7baba1c4bc27f4b0-3">
          <mxGeometry x="61.5" y="90" width="15" height="70" as="geometry" />
        </mxCell>
        <mxCell id="lJFk7y_i67_SKoSGKmx9-21" value="" style="html=1;points=[];perimeter=orthogonalPerimeter;rounded=0;shadow=0;comic=0;labelBackgroundColor=none;strokeWidth=1;fontFamily=Verdana;fontSize=12;align=center;" vertex="1" parent="7baba1c4bc27f4b0-3">
          <mxGeometry x="60.5" y="170" width="17.5" height="227" as="geometry" />
        </mxCell>
        <mxCell id="7baba1c4bc27f4b0-4" value=":HRM" style="shape=umlLifeline;perimeter=lifelinePerimeter;whiteSpace=wrap;html=1;container=1;collapsible=0;recursiveResize=0;outlineConnect=0;rounded=1;shadow=0;comic=0;labelBackgroundColor=none;strokeWidth=1;fontFamily=Verdana;fontSize=12;align=center;" vertex="1" parent="1">
          <mxGeometry x="652" y="80" width="100" height="1089" as="geometry" />
        </mxCell>
        <mxCell id="lJFk7y_i67_SKoSGKmx9-71" value="" style="html=1;points=[];perimeter=orthogonalPerimeter;rounded=0;shadow=0;comic=0;labelBackgroundColor=none;strokeWidth=1;fontFamily=Verdana;fontSize=12;align=center;" vertex="1" parent="7baba1c4bc27f4b0-4">
          <mxGeometry x="45" y="730" width="10" height="343" as="geometry" />
        </mxCell>
        <mxCell id="7baba1c4bc27f4b0-5" value=":Tenant Management" style="shape=umlLifeline;perimeter=lifelinePerimeter;whiteSpace=wrap;html=1;container=1;collapsible=0;recursiveResize=0;outlineConnect=0;rounded=1;shadow=0;comic=0;labelBackgroundColor=none;strokeWidth=1;fontFamily=Verdana;fontSize=12;align=center;" vertex="1" parent="1">
          <mxGeometry x="950" y="79.66" width="100" height="902" as="geometry" />
        </mxCell>
        <mxCell id="lJFk7y_i67_SKoSGKmx9-75" value="Thông tin db" style="html=1;verticalAlign=bottom;endArrow=open;dashed=1;endSize=8;labelBackgroundColor=none;fontFamily=Verdana;fontSize=12;edgeStyle=elbowEdgeStyle;elbow=vertical;exitX=0.2;exitY=0.967;exitDx=0;exitDy=0;exitPerimeter=0;" edge="1" parent="7baba1c4bc27f4b0-5" source="lJFk7y_i67_SKoSGKmx9-77">
          <mxGeometry relative="1" as="geometry">
            <mxPoint x="-248" y="889.34" as="targetPoint" />
            <Array as="points">
              <mxPoint x="-10" y="889" />
              <mxPoint x="20" y="889" />
            </Array>
            <mxPoint x="-99.5" y="889.0000000000001" as="sourcePoint" />
            <mxPoint as="offset" />
          </mxGeometry>
        </mxCell>
        <mxCell id="lJFk7y_i67_SKoSGKmx9-12" value="" style="group" connectable="0" vertex="1" parent="1">
          <mxGeometry x="1066" y="40" width="100" height="632.5" as="geometry" />
        </mxCell>
        <mxCell id="7baba1c4bc27f4b0-6" value=":DB_Tenant1" style="shape=umlLifeline;perimeter=lifelinePerimeter;whiteSpace=wrap;html=1;container=0;collapsible=0;recursiveResize=0;outlineConnect=0;rounded=1;shadow=0;comic=0;labelBackgroundColor=none;strokeWidth=1;fontFamily=Verdana;fontSize=12;align=center;" vertex="1" parent="lJFk7y_i67_SKoSGKmx9-12">
          <mxGeometry y="52.5" width="100" height="580" as="geometry" />
        </mxCell>
        <mxCell id="lJFk7y_i67_SKoSGKmx9-5" value="" style="shape=cylinder3;whiteSpace=wrap;html=1;boundedLbl=1;backgroundOutline=1;size=15;movable=0;resizable=0;rotatable=0;deletable=0;editable=0;locked=1;connectable=0;" vertex="1" parent="lJFk7y_i67_SKoSGKmx9-12">
          <mxGeometry width="90" height="50" as="geometry" />
        </mxCell>
        <mxCell id="lJFk7y_i67_SKoSGKmx9-56" value="" style="html=1;points=[];perimeter=orthogonalPerimeter;rounded=0;shadow=0;comic=0;labelBackgroundColor=none;strokeWidth=1;fontFamily=Verdana;fontSize=12;align=center;" vertex="1" parent="lJFk7y_i67_SKoSGKmx9-12">
          <mxGeometry x="45" y="602" width="10" height="130" as="geometry" />
        </mxCell>
        <mxCell id="lJFk7y_i67_SKoSGKmx9-10" value="&lt;div&gt;Đăng ký chợ MISA&lt;/div&gt;&lt;div&gt;và cung cấp link&amp;nbsp;&lt;/div&gt;&lt;div&gt;cho từng tenant&lt;/div&gt;" style="shape=umlFrame;whiteSpace=wrap;html=1;pointerEvents=0;width=120;height=75;fillColor=#d5e8d4;strokeColor=#82b366;" vertex="1" parent="1">
          <mxGeometry x="140" y="140" width="920" height="348" as="geometry" />
        </mxCell>
        <mxCell id="lJFk7y_i67_SKoSGKmx9-17" value="&lt;div&gt;&amp;nbsp;Liên kết trang web riêng về&lt;/div&gt;&lt;div&gt;&amp;nbsp;quản lý tenant của VNR&lt;/div&gt;" style="html=1;verticalAlign=bottom;endArrow=block;labelBackgroundColor=none;fontFamily=Verdana;fontSize=12;edgeStyle=elbowEdgeStyle;elbow=vertical;" edge="1" parent="1" target="lJFk7y_i67_SKoSGKmx9-28">
          <mxGeometry relative="1" as="geometry">
            <mxPoint x="570" y="399.5" as="sourcePoint" />
            <mxPoint x="700" y="399.5" as="targetPoint" />
          </mxGeometry>
        </mxCell>
        <mxCell id="lJFk7y_i67_SKoSGKmx9-19" value="&lt;div&gt;Đăng nhập chợ phần mềm&lt;/div&gt;&lt;div&gt;(UserName/Password)&lt;/div&gt;" style="html=1;verticalAlign=bottom;endArrow=block;entryX=0;entryY=0;labelBackgroundColor=none;fontFamily=Verdana;fontSize=12;edgeStyle=elbowEdgeStyle;elbow=vertical;" edge="1" parent="1" source="7baba1c4bc27f4b0-10">
          <mxGeometry x="0.0112" relative="1" as="geometry">
            <mxPoint x="420" y="200" as="sourcePoint" />
            <mxPoint x="550" y="200" as="targetPoint" />
            <mxPoint x="1" as="offset" />
          </mxGeometry>
        </mxCell>
        <mxCell id="lJFk7y_i67_SKoSGKmx9-22" value="Vào chức năng chợ phần mềm&lt;br&gt;&amp;nbsp;(marketPlace)" style="html=1;verticalAlign=bottom;endArrow=block;entryX=0;entryY=0;labelBackgroundColor=none;fontFamily=Verdana;fontSize=12;edgeStyle=elbowEdgeStyle;elbow=vertical;" edge="1" parent="1">
          <mxGeometry x="0.0112" relative="1" as="geometry">
            <mxPoint x="328" y="280" as="sourcePoint" />
            <mxPoint x="550" y="280" as="targetPoint" />
            <mxPoint x="1" as="offset" />
          </mxGeometry>
        </mxCell>
        <mxCell id="lJFk7y_i67_SKoSGKmx9-23" value="Chọn ứng dụng HRM" style="html=1;verticalAlign=bottom;endArrow=block;entryX=0;entryY=0;labelBackgroundColor=none;fontFamily=Verdana;fontSize=12;edgeStyle=elbowEdgeStyle;elbow=vertical;" edge="1" parent="1">
          <mxGeometry x="0.0112" relative="1" as="geometry">
            <mxPoint x="328" y="320" as="sourcePoint" />
            <mxPoint x="550" y="320" as="targetPoint" />
            <mxPoint x="1" as="offset" />
          </mxGeometry>
        </mxCell>
        <mxCell id="lJFk7y_i67_SKoSGKmx9-24" value="Tạo tenant" style="html=1;verticalAlign=bottom;endArrow=block;entryX=0;entryY=0;labelBackgroundColor=none;fontFamily=Verdana;fontSize=12;edgeStyle=elbowEdgeStyle;elbow=vertical;" edge="1" parent="1">
          <mxGeometry x="0.0112" relative="1" as="geometry">
            <mxPoint x="328" y="360" as="sourcePoint" />
            <mxPoint x="550" y="360" as="targetPoint" />
            <mxPoint x="1" as="offset" />
          </mxGeometry>
        </mxCell>
        <mxCell id="7baba1c4bc27f4b0-10" value="" style="html=1;points=[];perimeter=orthogonalPerimeter;rounded=0;shadow=0;comic=0;labelBackgroundColor=none;strokeWidth=1;fontFamily=Verdana;fontSize=12;align=center;" vertex="1" parent="1">
          <mxGeometry x="317.5" y="180" width="12.5" height="57.5" as="geometry" />
        </mxCell>
        <mxCell id="lJFk7y_i67_SKoSGKmx9-20" value="" style="html=1;points=[];perimeter=orthogonalPerimeter;rounded=0;shadow=0;comic=0;labelBackgroundColor=none;strokeWidth=1;fontFamily=Verdana;fontSize=12;align=center;" vertex="1" parent="1">
          <mxGeometry x="317.5" y="250" width="12.5" height="223" as="geometry" />
        </mxCell>
        <mxCell id="7baba1c4bc27f4b0-2" value=":User MISA" style="shape=umlLifeline;perimeter=lifelinePerimeter;whiteSpace=wrap;html=1;container=1;collapsible=0;recursiveResize=0;outlineConnect=0;rounded=1;shadow=0;comic=0;labelBackgroundColor=none;strokeWidth=1;fontFamily=Verdana;fontSize=12;align=center;" vertex="1" parent="1">
          <mxGeometry x="240" y="80" width="165" height="1092" as="geometry" />
        </mxCell>
        <mxCell id="lJFk7y_i67_SKoSGKmx9-41" value="" style="html=1;points=[];perimeter=orthogonalPerimeter;rounded=0;shadow=0;comic=0;labelBackgroundColor=none;strokeWidth=1;fontFamily=Verdana;fontSize=12;align=center;" vertex="1" parent="7baba1c4bc27f4b0-2">
          <mxGeometry x="78" y="437" width="10" height="272" as="geometry" />
        </mxCell>
        <mxCell id="lJFk7y_i67_SKoSGKmx9-4" value="" style="shape=umlActor;verticalLabelPosition=bottom;verticalAlign=top;html=1;" vertex="1" parent="1">
          <mxGeometry x="308" y="17.5" width="30" height="60" as="geometry" />
        </mxCell>
        <mxCell id="lJFk7y_i67_SKoSGKmx9-28" value="" style="html=1;points=[];perimeter=orthogonalPerimeter;rounded=0;shadow=0;comic=0;labelBackgroundColor=none;strokeWidth=1;fontFamily=Verdana;fontSize=12;align=center;" vertex="1" parent="1">
          <mxGeometry x="991.25" y="397" width="17.5" height="74" as="geometry" />
        </mxCell>
        <mxCell id="lJFk7y_i67_SKoSGKmx9-30" value="" style="endArrow=none;dashed=1;html=1;dashPattern=1 3;strokeWidth=2;rounded=0;entryX=0;entryY=0.595;entryDx=0;entryDy=0;entryPerimeter=0;" edge="1" parent="1" source="lJFk7y_i67_SKoSGKmx9-28" target="lJFk7y_i67_SKoSGKmx9-29">
          <mxGeometry width="50" height="50" relative="1" as="geometry">
            <mxPoint x="770" y="500" as="sourcePoint" />
            <mxPoint x="820" y="450" as="targetPoint" />
          </mxGeometry>
        </mxCell>
        <mxCell id="lJFk7y_i67_SKoSGKmx9-31" value="Phản hồi kết quả" style="html=1;verticalAlign=bottom;endArrow=open;dashed=1;endSize=8;labelBackgroundColor=none;fontFamily=Verdana;fontSize=12;edgeStyle=elbowEdgeStyle;elbow=vertical;exitX=-0.014;exitY=0.676;exitDx=0;exitDy=0;exitPerimeter=0;" edge="1" parent="1">
          <mxGeometry x="-0.0741" relative="1" as="geometry">
            <mxPoint x="572" y="437" as="targetPoint" />
            <Array as="points">
              <mxPoint x="647" y="437" />
              <mxPoint x="677" y="437" />
            </Array>
            <mxPoint x="991.0050000000001" y="455.0239999999999" as="sourcePoint" />
            <mxPoint as="offset" />
          </mxGeometry>
        </mxCell>
        <mxCell id="lJFk7y_i67_SKoSGKmx9-29" value="&lt;div style=&quot;font-size: 10px;&quot;&gt;&lt;b style=&quot;&quot;&gt;&lt;font style=&quot;font-size: 10px;&quot;&gt;Quản lý thông tin tenant :&lt;/font&gt;&lt;/b&gt;&lt;/div&gt;&lt;div style=&quot;font-size: 10px;&quot;&gt;&lt;font style=&quot;font-size: 10px;&quot;&gt;- TenantId,&lt;/font&gt;&lt;/div&gt;&lt;div style=&quot;font-size: 10px;&quot;&gt;&lt;font style=&quot;font-size: 10px;&quot;&gt;- IP tenant&lt;/font&gt;&lt;/div&gt;&lt;div style=&quot;font-size: 10px;&quot;&gt;&lt;font style=&quot;font-size: 10px;&quot;&gt;- Tên miền tenant&lt;/font&gt;&lt;/div&gt;&lt;div style=&quot;font-size: 10px;&quot;&gt;&lt;font style=&quot;font-size: 10px;&quot;&gt;- Thông tin công ty&lt;/font&gt;&lt;/div&gt;&lt;div style=&quot;font-size: 10px;&quot;&gt;&lt;font style=&quot;font-size: 10px;&quot;&gt;- Thông tin database&lt;/font&gt;&lt;/div&gt;&lt;div style=&quot;font-size: 10px;&quot;&gt;&lt;font style=&quot;font-size: 10px;&quot;&gt;- Tổng số nhân viên của tenant&lt;/font&gt;&lt;/div&gt;&lt;div style=&quot;font-size: 10px;&quot;&gt;&lt;font style=&quot;font-size: 10px;&quot;&gt;- Ngày bắt đầu sử dụng&amp;nbsp;&lt;/font&gt;&lt;/div&gt;&lt;div style=&quot;font-size: 10px;&quot;&gt;&lt;font style=&quot;font-size: 10px;&quot;&gt;- Ngày kết thúc sử dụng&lt;/font&gt;&lt;/div&gt;&lt;div style=&quot;font-size: 10px;&quot;&gt;&lt;font style=&quot;font-size: 10px;&quot;&gt;&lt;br&gt;&lt;/font&gt;&lt;/div&gt;&lt;div style=&quot;font-size: 10px;&quot;&gt;&lt;font style=&quot;font-size: 10px;&quot;&gt;&lt;b style=&quot;border-color: var(--border-color);&quot;&gt;Quản lý thông tin users :&lt;/b&gt;&lt;br&gt;&lt;/font&gt;&lt;/div&gt;&lt;div style=&quot;font-size: 10px;&quot;&gt;&lt;font style=&quot;font-size: 10px;&quot;&gt;&lt;span style=&quot;border-color: var(--border-color);&quot;&gt;- UserName,&lt;/span&gt;&lt;span style=&quot;background-color: initial;&quot;&gt;DateCreate, T&lt;/span&gt;&lt;/font&gt;&lt;span style=&quot;background-color: initial;&quot;&gt;enantID&lt;/span&gt;&lt;/div&gt;" style="shape=document;whiteSpace=wrap;html=1;boundedLbl=1;align=left;fillColor=#f5f5f5;strokeColor=#666666;fontColor=#333333;" vertex="1" parent="1">
          <mxGeometry x="777" y="149" width="212" height="209" as="geometry" />
        </mxCell>
        <mxCell id="lJFk7y_i67_SKoSGKmx9-37" value="&lt;div&gt;Khách hàng triển khai quản lý SaaS&lt;/div&gt;&lt;div&gt;với link&amp;nbsp;&lt;/div&gt;&lt;div&gt;&lt;font color=&quot;#67ab9f&quot;&gt;https://saas.hrm.com&lt;/font&gt;&lt;/div&gt;&lt;div&gt;&lt;font color=&quot;#67ab9f&quot;&gt;https://Portal.saas.hrm.com&lt;br&gt;&lt;/font&gt;&lt;/div&gt;" style="html=1;verticalAlign=bottom;endArrow=open;dashed=1;endSize=8;labelBackgroundColor=none;fontFamily=Verdana;fontSize=12;edgeStyle=elbowEdgeStyle;elbow=vertical;exitX=-0.029;exitY=0.846;exitDx=0;exitDy=0;exitPerimeter=0;" edge="1" parent="1" source="lJFk7y_i67_SKoSGKmx9-21">
          <mxGeometry x="-0.0044" y="2" relative="1" as="geometry">
            <mxPoint x="324" y="453" as="targetPoint" />
            <Array as="points">
              <mxPoint x="429" y="453" />
            </Array>
            <mxPoint x="585" y="444" as="sourcePoint" />
            <mxPoint as="offset" />
          </mxGeometry>
        </mxCell>
        <mxCell id="lJFk7y_i67_SKoSGKmx9-43" value="&lt;div&gt;Đăng nhập SaaS link quản lý:&lt;/div&gt;&lt;div&gt;&lt;font color=&quot;#67ab9f&quot;&gt;https://saas.hrm.com/&lt;/font&gt;&lt;/div&gt;&lt;div&gt;&lt;br&gt;&lt;/div&gt;" style="endArrow=classic;html=1;rounded=0;" edge="1" parent="1" target="lJFk7y_i67_SKoSGKmx9-41">
          <mxGeometry width="50" height="50" relative="1" as="geometry">
            <mxPoint x="117" y="570" as="sourcePoint" />
            <mxPoint x="160" y="521" as="targetPoint" />
            <Array as="points" />
          </mxGeometry>
        </mxCell>
        <mxCell id="lJFk7y_i67_SKoSGKmx9-49" value="" style="html=1;points=[];perimeter=orthogonalPerimeter;rounded=0;shadow=0;comic=0;labelBackgroundColor=none;strokeWidth=1;fontFamily=Verdana;fontSize=12;align=center;" vertex="1" parent="1">
          <mxGeometry x="697" y="556" width="10" height="214" as="geometry" />
        </mxCell>
        <mxCell id="lJFk7y_i67_SKoSGKmx9-55" value="Thông tin db" style="html=1;verticalAlign=bottom;endArrow=open;dashed=1;endSize=8;labelBackgroundColor=none;fontFamily=Verdana;fontSize=12;edgeStyle=elbowEdgeStyle;elbow=vertical;exitX=0.057;exitY=0.871;exitDx=0;exitDy=0;exitPerimeter=0;" edge="1" parent="1" source="NDnov2rs3G9QNNkDQ5xF-1">
          <mxGeometry x="0.4555" y="-2" relative="1" as="geometry">
            <mxPoint x="707" y="651" as="targetPoint" />
            <Array as="points">
              <mxPoint x="782" y="651" />
              <mxPoint x="812" y="651" />
            </Array>
            <mxPoint x="837" y="651" as="sourcePoint" />
            <mxPoint as="offset" />
          </mxGeometry>
        </mxCell>
        <mxCell id="lJFk7y_i67_SKoSGKmx9-58" value="Dựa vào thông tin db, kiểm tra userName/Password hợp lệ" style="endArrow=classic;html=1;rounded=0;entryX=-0.2;entryY=0.422;entryDx=0;entryDy=0;entryPerimeter=0;exitX=0.9;exitY=0.236;exitDx=0;exitDy=0;exitPerimeter=0;" edge="1" parent="1" target="lJFk7y_i67_SKoSGKmx9-56">
          <mxGeometry x="0.0066" width="50" height="50" relative="1" as="geometry">
            <mxPoint x="707" y="695" as="sourcePoint" />
            <mxPoint x="841" y="701" as="targetPoint" />
            <mxPoint as="offset" />
          </mxGeometry>
        </mxCell>
        <mxCell id="lJFk7y_i67_SKoSGKmx9-60" value="" style="html=1;verticalAlign=bottom;endArrow=open;dashed=1;endSize=8;labelBackgroundColor=none;fontFamily=Verdana;fontSize=12;edgeStyle=elbowEdgeStyle;elbow=vertical;exitX=0.2;exitY=0.638;exitDx=0;exitDy=0;exitPerimeter=0;" edge="1" parent="1" source="lJFk7y_i67_SKoSGKmx9-56">
          <mxGeometry x="0.0857" y="9" relative="1" as="geometry">
            <mxPoint x="707" y="729" as="targetPoint" />
            <Array as="points">
              <mxPoint x="782" y="729" />
              <mxPoint x="812" y="729" />
            </Array>
            <mxPoint x="837" y="729" as="sourcePoint" />
            <mxPoint as="offset" />
          </mxGeometry>
        </mxCell>
        <mxCell id="WR_82-5HQann_rm4IivF-2" value="Trả về đăng nhập thành công hay thất bại" style="edgeLabel;html=1;align=center;verticalAlign=middle;resizable=0;points=[];" connectable="0" vertex="1" parent="lJFk7y_i67_SKoSGKmx9-60">
          <mxGeometry x="-0.3367" y="-2" relative="1" as="geometry">
            <mxPoint as="offset" />
          </mxGeometry>
        </mxCell>
        <mxCell id="lJFk7y_i67_SKoSGKmx9-61" value="" style="html=1;verticalAlign=bottom;endArrow=open;dashed=1;endSize=8;labelBackgroundColor=none;fontFamily=Verdana;fontSize=12;edgeStyle=elbowEdgeStyle;elbow=vertical;exitX=0.2;exitY=0.638;exitDx=0;exitDy=0;exitPerimeter=0;" edge="1" parent="1">
          <mxGeometry x="0.0857" y="9" relative="1" as="geometry">
            <mxPoint x="325" y="758" as="targetPoint" />
            <Array as="points">
              <mxPoint x="400" y="758" />
              <mxPoint x="430" y="758" />
            </Array>
            <mxPoint x="695" y="754" as="sourcePoint" />
            <mxPoint as="offset" />
          </mxGeometry>
        </mxCell>
        <mxCell id="lJFk7y_i67_SKoSGKmx9-62" value="" style="html=1;verticalAlign=bottom;endArrow=open;dashed=1;endSize=8;labelBackgroundColor=none;fontFamily=Verdana;fontSize=12;edgeStyle=elbowEdgeStyle;elbow=vertical;" edge="1" parent="1">
          <mxGeometry x="0.0857" y="9" relative="1" as="geometry">
            <mxPoint x="114" y="785" as="targetPoint" />
            <Array as="points" />
            <mxPoint x="321" y="785" as="sourcePoint" />
            <mxPoint as="offset" />
          </mxGeometry>
        </mxCell>
        <mxCell id="lJFk7y_i67_SKoSGKmx9-66" value="&lt;div&gt;Đăng nhập SaaS link portal&lt;/div&gt;&lt;div&gt;&lt;font color=&quot;#67ab9f&quot;&gt;https://portal.saas.hrm.com&lt;/font&gt;&lt;/div&gt;" style="endArrow=classic;html=1;rounded=0;entryX=-0.15;entryY=0.162;entryDx=0;entryDy=0;entryPerimeter=0;" edge="1" parent="1" target="lJFk7y_i67_SKoSGKmx9-67">
          <mxGeometry x="0.05" y="6" width="50" height="50" relative="1" as="geometry">
            <mxPoint x="116" y="877" as="sourcePoint" />
            <mxPoint x="320" y="865" as="targetPoint" />
            <Array as="points" />
            <mxPoint as="offset" />
          </mxGeometry>
        </mxCell>
        <mxCell id="lJFk7y_i67_SKoSGKmx9-67" value="" style="html=1;points=[];perimeter=orthogonalPerimeter;rounded=0;shadow=0;comic=0;labelBackgroundColor=none;strokeWidth=1;fontFamily=Verdana;fontSize=12;align=center;" vertex="1" parent="1">
          <mxGeometry x="317.5" y="823" width="10" height="333" as="geometry" />
        </mxCell>
        <mxCell id="lJFk7y_i67_SKoSGKmx9-76" value="API lấy db Info&lt;br style=&quot;border-color: var(--border-color);&quot;&gt;dựa vào&lt;br style=&quot;border-color: var(--border-color);&quot;&gt;&amp;nbsp;userName" style="endArrow=classic;html=1;rounded=0;entryX=0.1;entryY=0.514;entryDx=0;entryDy=0;entryPerimeter=0;exitX=1.2;exitY=0.253;exitDx=0;exitDy=0;exitPerimeter=0;" edge="1" parent="1" target="lJFk7y_i67_SKoSGKmx9-77">
          <mxGeometry x="0.0066" width="50" height="50" relative="1" as="geometry">
            <mxPoint x="709" y="917.779" as="sourcePoint" />
            <mxPoint x="838" y="918.7460000000001" as="targetPoint" />
            <mxPoint as="offset" />
          </mxGeometry>
        </mxCell>
        <mxCell id="lJFk7y_i67_SKoSGKmx9-79" value="" style="html=1;verticalAlign=bottom;endArrow=open;dashed=1;endSize=8;labelBackgroundColor=none;fontFamily=Verdana;fontSize=12;edgeStyle=elbowEdgeStyle;elbow=vertical;exitX=-0.29;exitY=0.741;exitDx=0;exitDy=0;exitPerimeter=0;" edge="1" parent="1" source="lJFk7y_i67_SKoSGKmx9-57">
          <mxGeometry x="0.0857" y="9" relative="1" as="geometry">
            <mxPoint x="707" y="1069" as="targetPoint" />
            <Array as="points">
              <mxPoint x="868" y="1069" />
              <mxPoint x="898" y="1069" />
            </Array>
            <mxPoint x="1163" y="1065" as="sourcePoint" />
            <mxPoint as="offset" />
          </mxGeometry>
        </mxCell>
        <mxCell id="WR_82-5HQann_rm4IivF-3" value="Trả về đăng nhập thành công hay thất bại" style="edgeLabel;html=1;align=center;verticalAlign=middle;resizable=0;points=[];" connectable="0" vertex="1" parent="lJFk7y_i67_SKoSGKmx9-79">
          <mxGeometry x="-0.0485" y="1" relative="1" as="geometry">
            <mxPoint as="offset" />
          </mxGeometry>
        </mxCell>
        <mxCell id="lJFk7y_i67_SKoSGKmx9-82" value="" style="html=1;verticalAlign=bottom;endArrow=open;dashed=1;endSize=8;labelBackgroundColor=none;fontFamily=Verdana;fontSize=12;edgeStyle=elbowEdgeStyle;elbow=vertical;" edge="1" parent="1">
          <mxGeometry x="0.0857" y="9" relative="1" as="geometry">
            <mxPoint x="114" y="1134" as="targetPoint" />
            <Array as="points" />
            <mxPoint x="321" y="1134" as="sourcePoint" />
            <mxPoint as="offset" />
          </mxGeometry>
        </mxCell>
        <mxCell id="7baba1c4bc27f4b0-7" value=":DB_Tenant2" style="shape=umlLifeline;perimeter=lifelinePerimeter;whiteSpace=wrap;html=1;container=1;collapsible=0;recursiveResize=0;outlineConnect=0;rounded=1;shadow=0;comic=0;labelBackgroundColor=none;strokeWidth=1;fontFamily=Verdana;fontSize=12;align=center;" vertex="1" parent="1">
          <mxGeometry x="1186" y="92.65817518248176" width="100" height="1135.3418248175183" as="geometry" />
        </mxCell>
        <mxCell id="lJFk7y_i67_SKoSGKmx9-38" value="&lt;div style=&quot;border-color: var(--border-color);&quot;&gt;User&amp;nbsp;sử dụng&amp;nbsp;&lt;span style=&quot;border-color: var(--border-color); background-color: initial;&quot;&gt;HRM&lt;/span&gt;&lt;/div&gt;&lt;div style=&quot;border-color: var(--border-color);&quot;&gt;theo từng&amp;nbsp;&lt;span style=&quot;border-color: var(--border-color); background-color: initial;&quot;&gt;tenant&lt;/span&gt;&lt;/div&gt;" style="shape=umlFrame;whiteSpace=wrap;html=1;pointerEvents=0;width=120;height=75;fillColor=#dae8fc;strokeColor=#6c8ebf;" vertex="1" parent="7baba1c4bc27f4b0-7">
          <mxGeometry x="-1215" y="409.34" width="1305" height="726" as="geometry" />
        </mxCell>
        <mxCell id="WR_82-5HQann_rm4IivF-1" value="Đăng nhập vào web portal HRM&lt;br&gt;&amp;nbsp;với userName / Password" style="endArrow=classic;html=1;rounded=0;exitX=1.05;exitY=0.213;exitDx=0;exitDy=0;exitPerimeter=0;" edge="1" parent="7baba1c4bc27f4b0-7" source="lJFk7y_i67_SKoSGKmx9-67">
          <mxGeometry x="-0.1891" y="-9" width="50" height="50" relative="1" as="geometry">
            <mxPoint x="-825" y="804.3399999999999" as="sourcePoint" />
            <mxPoint x="-492" y="806.3418248175183" as="targetPoint" />
            <mxPoint as="offset" />
          </mxGeometry>
        </mxCell>
        <mxCell id="lJFk7y_i67_SKoSGKmx9-57" value="" style="html=1;points=[];perimeter=orthogonalPerimeter;rounded=0;shadow=0;comic=0;labelBackgroundColor=none;strokeWidth=1;fontFamily=Verdana;fontSize=12;align=center;" vertex="1" parent="7baba1c4bc27f4b0-7">
          <mxGeometry x="45" y="880.3418248175183" width="10" height="131.24" as="geometry" />
        </mxCell>
        <mxCell id="lJFk7y_i67_SKoSGKmx9-6" value="" style="shape=cylinder3;whiteSpace=wrap;html=1;boundedLbl=1;backgroundOutline=1;size=15;" vertex="1" parent="1">
          <mxGeometry x="1191" y="30" width="90" height="55" as="geometry" />
        </mxCell>
        <mxCell id="lJFk7y_i67_SKoSGKmx9-83" value="Dựa vào thông tin db, kiểm tra userName/Password hợp lệ" style="endArrow=classic;html=1;rounded=0;entryX=0.3;entryY=0.296;entryDx=0;entryDy=0;entryPerimeter=0;exitX=1.3;exitY=0.589;exitDx=0;exitDy=0;exitPerimeter=0;" edge="1" parent="1" source="lJFk7y_i67_SKoSGKmx9-71" target="lJFk7y_i67_SKoSGKmx9-57">
          <mxGeometry x="0.0066" width="50" height="50" relative="1" as="geometry">
            <mxPoint x="831" y="1017" as="sourcePoint" />
            <mxPoint x="1197" y="1019" as="targetPoint" />
            <mxPoint as="offset" />
          </mxGeometry>
        </mxCell>
        <mxCell id="lJFk7y_i67_SKoSGKmx9-84" value="" style="html=1;verticalAlign=bottom;endArrow=open;dashed=1;endSize=8;labelBackgroundColor=none;fontFamily=Verdana;fontSize=12;edgeStyle=elbowEdgeStyle;elbow=vertical;" edge="1" parent="1">
          <mxGeometry x="0.0857" y="9" relative="1" as="geometry">
            <mxPoint x="325" y="1100" as="targetPoint" />
            <Array as="points">
              <mxPoint x="516" y="1100" />
            </Array>
            <mxPoint x="704" y="1100" as="sourcePoint" />
            <mxPoint as="offset" />
          </mxGeometry>
        </mxCell>
        <mxCell id="7baba1c4bc27f4b0-8" value=":User HRM" style="shape=umlLifeline;perimeter=lifelinePerimeter;whiteSpace=wrap;html=1;container=1;collapsible=0;recursiveResize=0;outlineConnect=0;rounded=1;shadow=0;comic=0;labelBackgroundColor=none;strokeWidth=1;fontFamily=Verdana;fontSize=12;align=center;" vertex="1" parent="1">
          <mxGeometry x="60" y="74" width="100" height="1129" as="geometry" />
        </mxCell>
        <mxCell id="lJFk7y_i67_SKoSGKmx9-18" value="" style="html=1;points=[];perimeter=orthogonalPerimeter;rounded=0;shadow=0;comic=0;labelBackgroundColor=none;strokeWidth=1;fontFamily=Verdana;fontSize=12;align=center;" vertex="1" parent="7baba1c4bc27f4b0-8">
          <mxGeometry x="45" y="441" width="10" height="269.36" as="geometry" />
        </mxCell>
        <mxCell id="lJFk7y_i67_SKoSGKmx9-2" value="" style="shape=umlActor;verticalLabelPosition=bottom;verticalAlign=top;html=1;" vertex="1" parent="1">
          <mxGeometry x="95" y="10" width="30" height="63" as="geometry" />
        </mxCell>
        <mxCell id="lJFk7y_i67_SKoSGKmx9-64" value="" style="html=1;points=[];perimeter=orthogonalPerimeter;rounded=0;shadow=0;comic=0;labelBackgroundColor=none;strokeWidth=1;fontFamily=Verdana;fontSize=12;align=center;" vertex="1" parent="1">
          <mxGeometry x="105" y="861.74" width="10" height="323.26" as="geometry" />
        </mxCell>
        <mxCell id="0qRNIVw4XnfTh0lj76al-1" value=":Identity Server" style="shape=umlLifeline;perimeter=lifelinePerimeter;whiteSpace=wrap;html=1;container=1;dropTarget=0;collapsible=0;recursiveResize=0;outlineConnect=0;portConstraint=eastwest;newEdgeStyle={&quot;edgeStyle&quot;:&quot;elbowEdgeStyle&quot;,&quot;elbow&quot;:&quot;vertical&quot;,&quot;curved&quot;:0,&quot;rounded&quot;:0};" vertex="1" parent="1">
          <mxGeometry x="801" y="80" width="100" height="1070" as="geometry" />
        </mxCell>
        <mxCell id="0qRNIVw4XnfTh0lj76al-4" value="" style="html=1;points=[];perimeter=orthogonalPerimeter;outlineConnect=0;targetShapes=umlLifeline;portConstraint=eastwest;newEdgeStyle={&quot;edgeStyle&quot;:&quot;elbowEdgeStyle&quot;,&quot;elbow&quot;:&quot;vertical&quot;,&quot;curved&quot;:0,&quot;rounded&quot;:0};" vertex="1" parent="0qRNIVw4XnfTh0lj76al-1">
          <mxGeometry x="45" y="493" width="10" height="84" as="geometry" />
        </mxCell>
        <mxCell id="lJFk7y_i67_SKoSGKmx9-47" value="Đăng nhập vào web main HRM&lt;br&gt;&amp;nbsp;với userName / Password" style="endArrow=classic;html=1;rounded=0;exitX=1;exitY=0.32;exitDx=0;exitDy=0;exitPerimeter=0;" edge="1" parent="1" source="lJFk7y_i67_SKoSGKmx9-41">
          <mxGeometry x="-0.1891" y="-9" width="50" height="50" relative="1" as="geometry">
            <mxPoint x="369" y="567.9959999999999" as="sourcePoint" />
            <mxPoint x="846" y="604" as="targetPoint" />
            <mxPoint as="offset" />
          </mxGeometry>
        </mxCell>
        <mxCell id="0qRNIVw4XnfTh0lj76al-5" value="self call" style="html=1;align=left;spacingLeft=2;endArrow=block;rounded=0;edgeStyle=orthogonalEdgeStyle;curved=0;rounded=0;" edge="1" parent="1" source="0qRNIVw4XnfTh0lj76al-4">
          <mxGeometry x="0.0014" relative="1" as="geometry">
            <mxPoint x="918" y="579" as="sourcePoint" />
            <Array as="points">
              <mxPoint x="909" y="579" />
              <mxPoint x="909" y="609" />
            </Array>
            <mxPoint x="856" y="608.7" as="targetPoint" />
            <mxPoint as="offset" />
          </mxGeometry>
        </mxCell>
        <mxCell id="lJFk7y_i67_SKoSGKmx9-54" value="lấy db Info&lt;br&gt;dựa vào&lt;br&gt;&amp;nbsp;userName" style="endArrow=classic;html=1;rounded=0;entryX=0.3;entryY=0.286;entryDx=0;entryDy=0;entryPerimeter=0;" edge="1" parent="1" source="NDnov2rs3G9QNNkDQ5xF-1">
          <mxGeometry x="1" y="54" width="50" height="50" relative="1" as="geometry">
            <mxPoint x="885" y="629.194" as="sourcePoint" />
            <mxPoint x="1019" y="626" as="targetPoint" />
            <mxPoint x="27" y="7" as="offset" />
          </mxGeometry>
        </mxCell>
        <mxCell id="NDnov2rs3G9QNNkDQ5xF-1" value="" style="html=1;points=[];perimeter=orthogonalPerimeter;rounded=0;shadow=0;comic=0;labelBackgroundColor=none;strokeWidth=1;fontFamily=Verdana;fontSize=12;align=center;" vertex="1" parent="1">
          <mxGeometry x="995" y="578" width="17.5" height="74" as="geometry" />
        </mxCell>
        <mxCell id="NDnov2rs3G9QNNkDQ5xF-2" value="" style="endArrow=classic;html=1;rounded=0;entryX=0.171;entryY=0.71;entryDx=0;entryDy=0;entryPerimeter=0;exitX=1.1;exitY=0.339;exitDx=0;exitDy=0;exitPerimeter=0;" edge="1" parent="1" source="lJFk7y_i67_SKoSGKmx9-49" target="NDnov2rs3G9QNNkDQ5xF-1">
          <mxGeometry x="-0.0268" y="51" width="50" height="50" relative="1" as="geometry">
            <mxPoint x="857" y="633" as="sourcePoint" />
            <mxPoint x="986.75" y="631.004" as="targetPoint" />
            <mxPoint as="offset" />
          </mxGeometry>
        </mxCell>
        <mxCell id="lJFk7y_i67_SKoSGKmx9-77" value="" style="html=1;points=[];perimeter=orthogonalPerimeter;rounded=0;shadow=0;comic=0;labelBackgroundColor=none;strokeWidth=1;fontFamily=Verdana;fontSize=12;align=center;" vertex="1" parent="1">
          <mxGeometry x="845" y="865" width="10" height="106" as="geometry" />
        </mxCell>
      </root>
    </mxGraphModel>
  </diagram>
</mxfile>
